<svg width="20" height="20" viewBox="0 0 20 20" fill="none" xmlns="http://www.w3.org/2000/svg">
<path d="M2.12862 13.924L3.32862 15.124V18.3326C3.32915 18.7745 3.50491 19.1981 3.81736 19.5106C4.12981 19.823 4.55342 19.9988 4.99529 19.9993H18.3316C18.7735 19.9988 19.1971 19.823 19.5095 19.5106C19.822 19.1981 19.9978 18.7745 19.9983 18.3326V9.99931C19.997 9.57861 19.8364 9.174 19.5488 8.86694C19.2612 8.55987 18.868 8.37313 18.4483 8.34431C18.6164 8.02995 18.6794 7.67005 18.6283 7.31726C18.5771 6.96448 18.4144 6.63732 18.164 6.38365L13.9193 2.13631L13.9173 2.13265H13.9143L12.2706 0.486979C11.9582 0.175138 11.5347 0 11.0933 0C10.6518 0 10.2284 0.175138 9.91595 0.486979L0.485286 9.92131C0.174391 10.2354 0 10.6595 0 11.1015C0 11.5434 0.174391 11.9675 0.485286 12.2816L2.12862 13.924ZM12.2683 1.42731L13.21 2.36965L7.25029 8.33265H5.36495L12.2683 1.42731ZM3.33162 12.2513L2.36495 13.218L1.42295 12.276L3.33162 10.366V12.2513ZM2.83629 13.6893L3.33162 13.194V14.1846L2.83629 13.6893ZM19.3316 9.99931V18.3326C19.3316 18.5979 19.2263 18.8522 19.0387 19.0398C18.8512 19.2273 18.5968 19.3326 18.3316 19.3326H4.99829C4.73307 19.3326 4.47872 19.2273 4.29118 19.0398C4.10364 18.8522 3.99829 18.5979 3.99829 18.3326V9.99931C3.99829 9.7341 4.10364 9.47974 4.29118 9.29221C4.47872 9.10467 4.73307 8.99931 4.99829 8.99931H18.3316C18.5968 8.99931 18.8512 9.10467 19.0387 9.29221C19.2263 9.47974 19.3316 9.7341 19.3316 9.99931ZM17.6926 8.27031L17.6316 8.33265H8.19262L13.6813 2.84131L17.6916 6.85398C17.8786 7.04216 17.9837 7.29663 17.9839 7.56194C17.9841 7.82724 17.8794 8.08187 17.6926 8.27031ZM0.957286 10.3916L10.3873 0.958312C10.5772 0.776816 10.8297 0.675366 11.0924 0.674994C11.3551 0.674622 11.6079 0.775355 11.7983 0.956312L4.22362 8.53265C3.92895 8.68878 3.6879 8.92972 3.53162 9.22431L0.952286 11.804C0.768077 11.6148 0.665416 11.3609 0.666351 11.0968C0.667286 10.8327 0.771742 10.5795 0.957286 10.3916Z" fill="black"/>
<path d="M5.33171 12.6659H7.33171C7.50852 12.6659 7.67809 12.5957 7.80311 12.4707C7.92813 12.3456 7.99837 12.1761 7.99837 11.9993V10.6659C7.99837 10.4891 7.92813 10.3196 7.80311 10.1945C7.67809 10.0695 7.50852 9.99927 7.33171 9.99927H5.33171C5.15489 9.99927 4.98533 10.0695 4.8603 10.1945C4.73528 10.3196 4.66504 10.4891 4.66504 10.6659V11.9993C4.66504 12.1761 4.73528 12.3456 4.8603 12.4707C4.98533 12.5957 5.15489 12.6659 5.33171 12.6659ZM5.33171 10.6659H7.33171V11.9993H5.33171V10.6659ZM4.99837 14.6659C5.08678 14.6659 5.17156 14.6308 5.23407 14.5683C5.29659 14.5058 5.33171 14.421 5.33171 14.3326V13.6659C5.33171 13.5775 5.29659 13.4927 5.23407 13.4302C5.17156 13.3677 5.08678 13.3326 4.99837 13.3326C4.90997 13.3326 4.82518 13.3677 4.76267 13.4302C4.70016 13.4927 4.66504 13.5775 4.66504 13.6659V14.3326C4.66504 14.421 4.70016 14.5058 4.76267 14.5683C4.82518 14.6308 4.90997 14.6659 4.99837 14.6659ZM6.33171 13.3326C6.2433 13.3326 6.15852 13.3677 6.096 13.4302C6.03349 13.4927 5.99837 13.5775 5.99837 13.6659V14.3326C5.99837 14.421 6.03349 14.5058 6.096 14.5683C6.15852 14.6308 6.2433 14.6659 6.33171 14.6659C6.42011 14.6659 6.5049 14.6308 6.56741 14.5683C6.62992 14.5058 6.66504 14.421 6.66504 14.3326V13.6659C6.66504 13.5775 6.62992 13.4927 6.56741 13.4302C6.5049 13.3677 6.42011 13.3326 6.33171 13.3326ZM7.33171 13.6659V14.3326C7.33171 14.421 7.36682 14.5058 7.42934 14.5683C7.49185 14.6308 7.57663 14.6659 7.66504 14.6659C7.75344 14.6659 7.83823 14.6308 7.90074 14.5683C7.96325 14.5058 7.99837 14.421 7.99837 14.3326V13.6659C7.99837 13.5775 7.96325 13.4927 7.90074 13.4302C7.83823 13.3677 7.75344 13.3326 7.66504 13.3326C7.57663 13.3326 7.49185 13.3677 7.42934 13.4302C7.36682 13.4927 7.33171 13.5775 7.33171 13.6659ZM8.99837 13.3326C8.90997 13.3326 8.82518 13.3677 8.76267 13.4302C8.70016 13.4927 8.66504 13.5775 8.66504 13.6659V14.3326C8.66504 14.421 8.70016 14.5058 8.76267 14.5683C8.82518 14.6308 8.90997 14.6659 8.99837 14.6659C9.08678 14.6659 9.17156 14.6308 9.23408 14.5683C9.29659 14.5058 9.33171 14.421 9.33171 14.3326V13.6659C9.33171 13.5775 9.29659 13.4927 9.23408 13.4302C9.17156 13.3677 9.08678 13.3326 8.99837 13.3326ZM10.3317 14.6659C10.4201 14.6659 10.5049 14.6308 10.5674 14.5683C10.6299 14.5058 10.665 14.421 10.665 14.3326V13.6659C10.665 13.5775 10.6299 13.4927 10.5674 13.4302C10.5049 13.3677 10.4201 13.3326 10.3317 13.3326C10.2433 13.3326 10.1585 13.3677 10.096 13.4302C10.0335 13.4927 9.99837 13.5775 9.99837 13.6659V14.3326C9.99837 14.421 10.0335 14.5058 10.096 14.5683C10.1585 14.6308 10.2433 14.6659 10.3317 14.6659ZM12.9984 13.3326C12.91 13.3326 12.8252 13.3677 12.7627 13.4302C12.7002 13.4927 12.665 13.5775 12.665 13.6659V14.3326C12.665 14.421 12.7002 14.5058 12.7627 14.5683C12.8252 14.6308 12.91 14.6659 12.9984 14.6659C13.0868 14.6659 13.1716 14.6308 13.2341 14.5683C13.2966 14.5058 13.3317 14.421 13.3317 14.3326V13.6659C13.3317 13.5775 13.2966 13.4927 13.2341 13.4302C13.1716 13.3677 13.0868 13.3326 12.9984 13.3326ZM14.3317 13.3326C14.2433 13.3326 14.1585 13.3677 14.096 13.4302C14.0335 13.4927 13.9984 13.5775 13.9984 13.6659V14.3326C13.9984 14.421 14.0335 14.5058 14.096 14.5683C14.1585 14.6308 14.2433 14.6659 14.3317 14.6659C14.4201 14.6659 14.5049 14.6308 14.5674 14.5683C14.6299 14.5058 14.665 14.421 14.665 14.3326V13.6659C14.665 13.5775 14.6299 13.4927 14.5674 13.4302C14.5049 13.3677 14.4201 13.3326 14.3317 13.3326ZM15.665 13.3326C15.5766 13.3326 15.4918 13.3677 15.4293 13.4302C15.3668 13.4927 15.3317 13.5775 15.3317 13.6659V14.3326C15.3317 14.421 15.3668 14.5058 15.4293 14.5683C15.4918 14.6308 15.5766 14.6659 15.665 14.6659C15.7534 14.6659 15.8382 14.6308 15.9007 14.5683C15.9633 14.5058 15.9984 14.421 15.9984 14.3326V13.6659C15.9984 13.5775 15.9633 13.4927 15.9007 13.4302C15.8382 13.3677 15.7534 13.3326 15.665 13.3326ZM16.9984 13.3326C16.91 13.3326 16.8252 13.3677 16.7627 13.4302C16.7002 13.4927 16.665 13.5775 16.665 13.6659V14.3326C16.665 14.421 16.7002 14.5058 16.7627 14.5683C16.8252 14.6308 16.91 14.6659 16.9984 14.6659C17.0868 14.6659 17.1716 14.6308 17.2341 14.5683C17.2966 14.5058 17.3317 14.421 17.3317 14.3326V13.6659C17.3317 13.5775 17.2966 13.4927 17.2341 13.4302C17.1716 13.3677 17.0868 13.3326 16.9984 13.3326ZM6.33171 15.3326H4.99837C4.90997 15.3326 4.82518 15.3677 4.76267 15.4302C4.70016 15.4927 4.66504 15.5775 4.66504 15.6659C4.66504 15.7543 4.70016 15.8391 4.76267 15.9016C4.82518 15.9641 4.90997 15.9993 4.99837 15.9993H6.33171C6.42011 15.9993 6.5049 15.9641 6.56741 15.9016C6.62992 15.8391 6.66504 15.7543 6.66504 15.6659C6.66504 15.5775 6.62992 15.4927 6.56741 15.4302C6.5049 15.3677 6.42011 15.3326 6.33171 15.3326ZM8.99837 15.3326H7.66504C7.57663 15.3326 7.49185 15.3677 7.42934 15.4302C7.36682 15.4927 7.33171 15.5775 7.33171 15.6659C7.33171 15.7543 7.36682 15.8391 7.42934 15.9016C7.49185 15.9641 7.57663 15.9993 7.66504 15.9993H8.99837C9.08678 15.9993 9.17156 15.9641 9.23408 15.9016C9.29659 15.8391 9.33171 15.7543 9.33171 15.6659C9.33171 15.5775 9.29659 15.4927 9.23408 15.4302C9.17156 15.3677 9.08678 15.3326 8.99837 15.3326ZM6.33171 16.6659H4.99837C4.90997 16.6659 4.82518 16.7011 4.76267 16.7636C4.70016 16.8261 4.66504 16.9109 4.66504 16.9993C4.66504 17.0877 4.70016 17.1725 4.76267 17.235C4.82518 17.2975 4.90997 17.3326 4.99837 17.3326H6.33171C6.42011 17.3326 6.5049 17.2975 6.56741 17.235C6.62992 17.1725 6.66504 17.0877 6.66504 16.9993C6.66504 16.9109 6.62992 16.8261 6.56741 16.7636C6.5049 16.7011 6.42011 16.6659 6.33171 16.6659ZM8.99837 16.6659H7.66504C7.57663 16.6659 7.49185 16.7011 7.42934 16.7636C7.36682 16.8261 7.33171 16.9109 7.33171 16.9993C7.33171 17.0877 7.36682 17.1725 7.42934 17.235C7.49185 17.2975 7.57663 17.3326 7.66504 17.3326H8.99837C9.08678 17.3326 9.17156 17.2975 9.23408 17.235C9.29659 17.1725 9.33171 17.0877 9.33171 16.9993C9.33171 16.9109 9.29659 16.8261 9.23408 16.7636C9.17156 16.7011 9.08678 16.6659 8.99837 16.6659ZM11.665 15.3326H10.3317C10.2433 15.3326 10.1585 15.3677 10.096 15.4302C10.0335 15.4927 9.99837 15.5775 9.99837 15.6659C9.99837 15.7543 10.0335 15.8391 10.096 15.9016C10.1585 15.9641 10.2433 15.9993 10.3317 15.9993H11.665C11.7534 15.9993 11.8382 15.9641 11.9007 15.9016C11.9633 15.8391 11.9984 15.7543 11.9984 15.6659C11.9984 15.5775 11.9633 15.4927 11.9007 15.4302C11.8382 15.3677 11.7534 15.3326 11.665 15.3326Z" fill="black"/>
</svg>
