<svg width="221" height="225" viewBox="0 0 221 225" fill="none" xmlns="http://www.w3.org/2000/svg">
<path d="M119.557 181.148H177.525V224.623H119.557V181.148Z" fill="#A6E2F9"/>
<path d="M119.557 181.148H177.525V199.262H119.557V181.148Z" fill="#8FCDE5"/>
<path d="M65.2131 181.148H101.443V224.623H65.2131V181.148Z" fill="#FADD78"/>
<path d="M65.2131 181.148H101.443V199.262H65.2131V181.148Z" fill="#F5CF46"/>
<path d="M0 152.164H36.2295V181.148H0V152.164Z" fill="#FADD78"/>
<path d="M7.24585 159.41H36.2295V181.147H7.24585V159.41Z" fill="#F5CF46"/>
<path d="M94.1968 192.016H123.18V224.623H94.1968V192.016Z" fill="#AA7151"/>
<path d="M94.1968 192.016H123.18V199.262H94.1968V192.016Z" fill="#9B6449"/>
<path d="M155.787 155.787L160.392 150.541L108.689 25.3606L39.8525 192.016H177.525L163.265 157.497L155.787 155.787Z" fill="#28D296"/>
<path d="M160.392 150.541L108.689 25.3606L54.3442 192.016H177.525L163.265 157.497L155.787 155.787L160.392 150.541Z" fill="#00BE7C"/>
<path d="M134.049 159.41C143.49 159.409 152.921 158.811 162.286 157.62L163.265 157.497L160.392 150.541C151.652 151.618 142.855 152.16 134.049 152.164C109.309 152.167 84.7418 148.032 61.3655 139.929L58.594 146.646L58.7969 146.715C82.9954 155.122 108.432 159.413 134.049 159.41Z" fill="#EAF0FF"/>
<path d="M62.09 143.469L60.6409 136.371C89.0341 130.557 116.366 120.415 141.679 106.301L145.204 112.634C119.242 127.108 91.2104 137.508 62.09 143.469ZM82.9655 92.9359L81.5163 85.8313C97.4063 82.6318 112.991 78.0681 128.097 72.1909L130.723 78.9405C115.236 84.9692 99.2573 89.6517 82.9655 92.9359Z" fill="#EAF0FF"/>
<path d="M141.183 108.203C120.264 106.848 99.6274 102.649 79.8425 95.7219L82.2337 88.8782C101.399 95.5928 121.392 99.6615 141.657 100.972L141.183 108.203Z" fill="#EAF0FF"/>
<path d="M130.426 166.656C136.429 166.656 141.295 161.79 141.295 155.787C141.295 149.784 136.429 144.918 130.426 144.918C124.424 144.918 119.557 149.784 119.557 155.787C119.557 161.79 124.424 166.656 130.426 166.656Z" fill="#A6E2F9"/>
<path d="M126.803 83.3279C132.806 83.3279 137.672 78.4618 137.672 72.4591C137.672 66.4564 132.806 61.5902 126.803 61.5902C120.8 61.5902 115.934 66.4564 115.934 72.4591C115.934 78.4618 120.8 83.3279 126.803 83.3279Z" fill="#A6E2F9"/>
<path d="M144.918 119.557C150.921 119.557 155.787 114.691 155.787 108.689C155.787 102.686 150.921 97.8197 144.918 97.8197C138.915 97.8197 134.049 102.686 134.049 108.689C134.049 114.691 138.915 119.557 144.918 119.557Z" fill="#F0284D"/>
<path d="M65.2131 152.164C71.2158 152.164 76.0819 147.298 76.0819 141.295C76.0819 135.292 71.2158 130.426 65.2131 130.426C59.2104 130.426 54.3442 135.292 54.3442 141.295C54.3442 147.298 59.2104 152.164 65.2131 152.164Z" fill="#F0284D"/>
<path d="M83.3278 101.443C89.3305 101.443 94.1967 96.5765 94.1967 90.5738C94.1967 84.5711 89.3305 79.705 83.3278 79.705C77.3251 79.705 72.459 84.5711 72.459 90.5738C72.459 96.5765 77.3251 101.443 83.3278 101.443Z" fill="#F5CF46"/>
<path d="M108.689 0L116.525 15.8794L134.049 18.4263L121.369 30.7842L124.361 48.2396L108.689 39.9974L93.0157 48.2396L96.0082 30.7842L83.3279 18.4263L100.852 15.8794L108.689 0ZM65.2131 192.016H79.7049V224.623H65.2131V192.016Z" fill="#F5CF46"/>
<path d="M65.2131 192.016H79.7049V199.262H65.2131V192.016Z" fill="#E0B836"/>
<path d="M0 181.148H72.459V224.623H0V181.148Z" fill="#FE4766"/>
<path d="M7.24585 188.393H72.459V224.623H7.24585V188.393Z" fill="#F0284D"/>
<path d="M72.459 199.262H39.8525V181.148H32.6066V199.262H0V206.508H32.6066V224.623H39.8525V206.508H72.459V199.262Z" fill="#28D296"/>
<path d="M39.8524 188.393H32.6065V199.262H7.24585V206.508H32.6065V224.623H39.8524V206.508H72.459V199.262H39.8524V188.393Z" fill="#00BE7C"/>
<path d="M14.4917 152.164H21.7376V181.148H14.4917V152.164Z" fill="#28D296"/>
<path d="M14.4917 159.41H21.7376V181.148H14.4917V159.41ZM195.639 48.0549H188.393V40.809C188.393 39.8481 188.012 38.9266 187.332 38.2472C186.653 37.5677 185.731 37.186 184.77 37.186C183.81 37.186 182.888 37.5677 182.209 38.2472C181.529 38.9266 181.147 39.8481 181.147 40.809V48.0549H173.902C172.941 48.0549 172.019 48.4366 171.34 49.116C170.66 49.7955 170.279 50.717 170.279 51.6778C170.279 52.6387 170.66 53.5602 171.34 54.2397C172.019 54.9191 172.941 55.3008 173.902 55.3008H181.147V62.5467C181.147 63.5076 181.529 64.4291 182.209 65.1085C182.888 65.7879 183.81 66.1696 184.77 66.1696C185.731 66.1696 186.653 65.7879 187.332 65.1085C188.012 64.4291 188.393 63.5076 188.393 62.5467V55.3008H195.639C196.6 55.3008 197.522 54.9191 198.201 54.2397C198.88 53.5602 199.262 52.6387 199.262 51.6778C199.262 50.717 198.88 49.7955 198.201 49.116C197.522 48.4366 196.6 48.0549 195.639 48.0549Z" fill="#00BE7C"/>
<path d="M36.2295 102.399H32.6065V98.7761C32.6065 97.8153 32.2248 96.8938 31.5454 96.2143C30.866 95.5349 29.9445 95.1532 28.9836 95.1532C28.0227 95.1532 27.1012 95.5349 26.4218 96.2143C25.7424 96.8938 25.3606 97.8153 25.3606 98.7761V102.399H21.7377C20.7768 102.399 19.8553 102.781 19.1759 103.46C18.4964 104.14 18.1147 105.061 18.1147 106.022C18.1147 106.983 18.4964 107.904 19.1759 108.584C19.8553 109.263 20.7768 109.645 21.7377 109.645H25.3606V113.268C25.3606 114.229 25.7424 115.15 26.4218 115.83C27.1012 116.509 28.0227 116.891 28.9836 116.891C29.9445 116.891 30.866 116.509 31.5454 115.83C32.2248 115.15 32.6065 114.229 32.6065 113.268V109.645H36.2295C37.1904 109.645 38.1119 109.263 38.7913 108.584C39.4707 107.904 39.8525 106.983 39.8525 106.022C39.8525 105.061 39.4707 104.14 38.7913 103.46C38.1119 102.781 37.1904 102.399 36.2295 102.399Z" fill="#F5CF46"/>
<path d="M65.2131 15.4483H61.5902V11.8253C61.5902 10.8645 61.2085 9.94297 60.5291 9.26353C59.8496 8.5841 58.9281 8.20239 57.9672 8.20239C57.0064 8.20239 56.0849 8.5841 55.4054 9.26353C54.726 9.94297 54.3443 10.8645 54.3443 11.8253V15.4483H50.7213C49.7605 15.4483 48.839 15.83 48.1595 16.5094C47.4801 17.1889 47.0984 18.1104 47.0984 19.0712C47.0984 20.0321 47.4801 20.9536 48.1595 21.6331C48.839 22.3125 49.7605 22.6942 50.7213 22.6942H54.3443V26.3171C54.3443 27.278 54.726 28.1995 55.4054 28.879C56.0849 29.5584 57.0064 29.9401 57.9672 29.9401C58.9281 29.9401 59.8496 29.5584 60.5291 28.879C61.2085 28.1995 61.5902 27.278 61.5902 26.3171V22.6942H65.2131C66.174 22.6942 67.0955 22.3125 67.775 21.6331C68.4544 20.9536 68.8361 20.0321 68.8361 19.0712C68.8361 18.1104 68.4544 17.1889 67.775 16.5094C67.0955 15.83 66.174 15.4483 65.2131 15.4483Z" fill="#F0284D"/>
<path d="M155.787 192.016H213.754V224.623H155.787V192.016Z" fill="#FADD78"/>
<path d="M163.033 192.016H213.754V224.623H163.033V192.016Z" fill="#F5CF46"/>
<path d="M155.787 192.016H213.754V199.262H155.787V192.016Z" fill="#F5CF46"/>
<path d="M163.033 192.016H213.754V199.262H163.033V192.016Z" fill="#E0B836"/>
<path d="M148.541 177.525H221V192.016H148.541V177.525Z" fill="#FADD78"/>
<path d="M155.787 184.771H221V192.016H155.787V184.771Z" fill="#F5CF46"/>
<path d="M202.885 159.41C198.081 159.41 193.473 161.318 190.076 164.715C186.679 168.113 184.771 172.72 184.771 177.525H210.131L202.885 159.41ZM166.656 159.41C171.46 159.41 176.068 161.318 179.465 164.715C182.862 168.113 184.771 172.72 184.771 177.525H159.41L166.656 159.41Z" fill="#F0284D"/>
<path d="M177.525 177.525H192.016V224.623H177.525V177.525Z" fill="#FE4766"/>
<path d="M177.525 184.771H192.016V224.623H177.525V184.771Z" fill="#F0284D"/>
<path d="M98.8776 23.4803L105.656 22.4949L108.689 16.3504L112.724 8.177L108.689 0L100.852 15.8794L83.3279 18.4263L96.0082 30.7842L93.0157 48.2396L101.084 43.9971L103.783 28.259L98.8776 23.4803Z" fill="#FADD78"/>
</svg>
