<svg width="25" height="23" viewBox="0 0 25 23" fill="none" xmlns="http://www.w3.org/2000/svg">
<path d="M18.9773 7.10433C18.9773 7.10433 16.0835 4.18848 11.726 4.81429C11.726 4.81429 9.16975 3.63095 5.57744 7.38755C5.57744 7.38755 4.80014 8.98968 4.86838 9.59343C4.86838 9.59343 3.16675 11.0229 4.44847 13.205C4.44847 13.205 4.40432 13.9828 5.32331 15.3042L6.76573 18.4301L8.8173 18.6926L8.58457 18.1137C8.58457 18.1137 8.73809 15.2669 8.44298 14.5818C8.44298 14.5818 8.64354 14.0703 9.06561 14.7888L9.34949 16.1251L19.231 9.2421L18.9773 7.10433Z" fill="#E14B4B"/>
<path d="M6.40508 12.3762C5.9189 10.8535 5.59155 9.28032 5.43766 7.68645C5.28028 8.04063 5.02901 8.64354 4.91995 9.1158C5.31945 10.2428 5.81846 11.333 6.40508 12.3762ZM8.59428 7.12941C8.47243 7.19229 8.39819 7.30042 8.35367 7.42953C8.43117 7.32818 8.51434 7.22785 8.59428 7.12941ZM8.44458 14.5758C8.46765 14.5274 8.66406 14.1162 9.05928 14.7817C9.09081 14.5058 9.08449 14.2173 9.10733 13.9414C9.16796 13.167 9.48562 12.4352 9.79573 11.7201C10.3894 10.3535 11.0067 8.95549 12.0258 7.86749C11.4002 8.19221 10.937 8.75648 10.5012 9.30824C9.63843 10.3994 8.78039 11.5777 8.59589 12.9534C8.22772 12.3192 8.2284 11.5452 8.24028 10.8125C8.25516 9.85029 8.26972 8.88759 8.2846 7.92542C8.28667 7.76107 8.29921 7.57752 8.35421 7.42921C7.982 7.8929 7.65004 8.38805 7.49965 8.95781C7.30001 9.71529 7.44696 10.5135 7.6133 11.2793C7.85417 12.387 8.13142 13.4864 8.44458 14.5758Z" fill="#D03F3E"/>
<path d="M22.876 9.61269C22.6319 9.19708 22.9159 9.67193 22.8174 9.4956C23.107 9.95409 21.5847 7.38472 21.0273 7.3467C20.5746 7.22764 19.8044 6.51269 19.7718 6.97923C19.4819 6.93127 19.4866 7.25041 19.209 7.02844C19.0661 7.03558 18.8314 6.82613 18.9045 7.15298C18.7787 7.1413 18.8309 7.44629 18.6539 7.44732C18.6377 7.72219 18.3975 7.70086 18.2536 8.0051C18.3635 8.19215 18.0326 7.83255 18.0152 8.11031C17.9812 8.36088 17.7213 8.3308 17.4731 8.32794C17.1771 8.24369 16.927 8.2449 16.8873 8.51183C16.853 8.70525 16.7189 8.82752 16.4393 8.73795C16.1793 8.68042 16.0281 8.84391 15.9621 9.11906C15.931 9.45491 15.7856 9.56421 15.5823 9.47846C15.5667 9.71238 15.3659 9.5323 15.4277 9.63742C15.4321 9.64497 15.4789 9.82339 15.3041 9.70349C15.2015 9.7065 15.1664 9.9011 14.9746 9.88688C14.9538 10.1637 14.6565 10.0266 14.5011 10.1657C14.2192 10.0906 13.9424 10.0589 13.9451 10.5177C13.6593 10.4854 13.4835 10.654 13.369 10.9206C13.1297 10.9749 12.9592 11.1388 12.8341 11.353C12.6231 11.4196 12.6285 11.8275 12.4027 11.7912C12.1628 11.7321 11.9554 11.6777 12.1365 12.2144C12.0783 12.1152 12.17 12.3789 12.0239 12.3226C11.9708 12.4248 11.789 12.3917 11.723 12.6176C11.5686 12.693 11.4407 12.874 11.2893 13.0543C10.9781 12.9615 10.9707 13.4241 10.7795 13.5886C10.6297 13.8238 10.5641 14.2169 10.2488 14.1751C9.90833 14.0916 9.88022 14.5301 9.75318 14.7693C9.77813 15.2673 9.42003 15.081 9.34837 15.3268C9.23427 15.5004 9.06632 15.528 9.09046 15.8024C9.09331 15.8073 9.17022 16.1369 9.16304 16.1593C9.16034 16.2189 9.32212 16.5647 9.27854 16.5584C9.34863 16.9529 10.1322 18.4474 10.669 18.9021C10.668 18.9005 10.6338 18.7879 10.7906 18.9438C10.8588 18.9487 10.8687 18.7978 11.1153 18.993C11.2942 19.0728 11.3716 18.9208 11.5808 18.935C11.878 19.099 11.9888 18.8853 12.1249 18.6553C12.2603 18.4242 12.4373 18.2021 12.6855 18.0396C12.5357 17.7846 12.6543 17.952 12.7208 17.9985C12.8285 18.1151 12.7185 17.828 12.826 17.8802C12.6919 17.521 12.975 17.8412 12.9988 17.6917C13.0301 17.5536 13.1805 17.59 13.2385 17.4407C13.5036 17.6438 13.4041 17.1991 13.5429 17.1343C13.5617 16.8651 13.6158 16.6289 13.9107 16.779C14.0798 16.7152 14.0508 16.2893 14.3401 16.3832C14.4113 16.1058 14.8025 16.3495 14.8301 15.9533C15.0695 15.9178 15.1348 15.5648 15.3785 15.4971C15.5423 15.2921 15.8355 15.2889 15.9844 15.0215C16.2214 14.9041 16.4821 14.8097 16.6456 14.5339C16.8708 14.3631 17.0216 14.0483 17.3614 14.0416C17.5548 13.7859 17.8618 13.7086 18.1295 13.5521C18.3414 13.3007 18.6502 13.2005 18.9486 13.0716C19.3624 12.664 19.843 12.5057 20.2384 12.3235C20.6366 12.1461 20.913 11.8822 21.1866 11.7172C21.4231 11.4891 21.6368 11.3259 21.8461 11.2414C22.1731 11.3575 22.1349 10.9383 22.2691 10.8827C22.3721 10.7743 22.344 10.5117 22.5071 10.6276C22.5736 10.5791 22.5067 10.3553 22.6128 10.4619C22.623 10.4052 22.6792 10.4627 22.6378 10.3725C22.7114 10.4779 22.8018 10.6307 22.6343 10.3455C22.8332 10.6841 22.7748 10.3674 22.7845 10.1334C22.9083 10.0911 23.1379 10.1955 22.876 9.61269ZM5.86246 19.6176C5.82871 20.6489 6.86022 21.5866 7.89147 21.6204C8.92272 21.6541 9.78579 20.8448 9.81954 19.8136C9.85329 18.7823 9.044 17.9193 8.01275 17.8855C6.98204 17.8515 5.8959 18.5859 5.86246 19.6176Z" fill="#DAE5EF"/>
<path d="M6.95133 21.3358C7.2403 21.5069 7.5664 21.6053 7.89225 21.617C8.92334 21.6566 9.78761 20.8444 9.8187 19.8111C9.85295 18.7832 9.04617 17.9158 8.01286 17.8847C7.96246 17.8853 7.91745 17.8827 7.87022 17.8887C8.4171 18.2273 8.77267 18.845 8.74909 19.5331C8.72056 20.5214 7.92192 21.3095 6.95133 21.3358ZM7.81568 17.965C7.79655 17.9472 7.7868 17.9232 7.78146 17.8981C7.78479 17.8976 7.78789 17.8979 7.79122 17.8974L7.81568 17.965Z" fill="#CBD6E0"/>
</svg>
