<svg width="25" height="25" viewBox="0 0 25 25" fill="none" xmlns="http://www.w3.org/2000/svg">
<path d="M24.9751 10.0202C24.9751 14.5112 16.5653 21.7731 13.8266 24.0229C13.3553 24.4043 12.5908 24.4043 12.1195 24.0229C9.3808 21.7731 0.976318 14.5112 0.976318 10.0202C0.976318 4.6563 6.34898 0.309326 12.9731 0.309326C19.6024 0.309326 24.9751 4.65635 24.9751 10.0202Z" fill="#616263"/>
<path d="M2.25941 11.0603C2.25941 15.0585 8.92394 21.2525 12.3193 24.1528C12.2462 24.1167 12.1793 24.0729 12.1205 24.0226C9.38148 21.7733 0.975098 14.5121 0.975098 10.0211C0.975098 4.65699 6.34901 0.30896 12.9725 0.30896C16.614 0.30896 19.8768 1.62127 22.0762 3.69446C19.9746 2.23153 17.2451 1.34815 14.2568 1.34815C7.63332 1.34815 2.25941 5.69613 2.25941 11.0603Z" fill="black" fill-opacity="0.0627451"/>
<path d="M18.5941 10.0202C18.5941 12.5317 16.0784 14.5671 12.9744 14.5671C9.87277 14.5671 7.35718 12.5317 7.35718 10.0202C7.35718 7.50868 9.87283 5.47327 12.9744 5.47327C16.0785 5.47327 18.5941 7.50868 18.5941 10.0202Z" fill="white"/>
</svg>
