<svg width="20" height="20" viewBox="0 0 20 20" fill="none" xmlns="http://www.w3.org/2000/svg">
<path d="M3.32301 17.7708C3.25039 17.6981 3.14961 17.6563 3.04688 17.6563C2.94414 17.6563 2.84336 17.6981 2.7707 17.7708C2.69805 17.8435 2.65625 17.9442 2.65625 18.047C2.65625 18.1497 2.69801 18.2505 2.7707 18.3231C2.84336 18.3958 2.94414 18.4376 3.04688 18.4376C3.14961 18.4376 3.25039 18.3958 3.32301 18.3231C3.39566 18.2505 3.4375 18.1497 3.4375 18.047C3.4375 17.9442 3.3957 17.8435 3.32301 17.7708ZM18.3407 7.14607C18.2673 7.073 18.168 7.03187 18.0645 7.03162C17.9618 7.03162 17.861 7.07337 17.7883 7.14607C17.7157 7.21873 17.6739 7.31951 17.6739 7.42224C17.6739 7.52498 17.7157 7.62576 17.7883 7.69837C17.8617 7.77137 17.961 7.81251 18.0645 7.81287C18.1676 7.81287 18.268 7.77107 18.3407 7.69837C18.4137 7.62576 18.4555 7.52498 18.4555 7.42224C18.4555 7.31951 18.4137 7.21873 18.3407 7.14607Z" fill="black"/>
<path d="M19.8853 0.114414C19.812 0.04116 19.7127 6.42608e-06 19.609 0L9.99989 0.000507813C9.78419 0.000507813 9.60931 0.17543 9.60931 0.391133V1.5082L5.90661 2.50035C5.69821 2.55621 5.57454 2.77039 5.6304 2.97875L7.54942 10.1405L5.88931 11.8007C5.67802 11.4921 5.32325 11.2893 4.92196 11.2893H1.17208C0.525908 11.2893 0.000244141 11.815 0.000244141 12.4611V18.8281C0.000244141 19.4743 0.525908 20 1.17208 20H4.922C5.47095 20 5.93274 19.6205 6.05931 19.1102L6.52376 19.5152C6.88223 19.8278 7.34179 20.0001 7.81743 20H19.6091C19.8248 20 19.9997 19.8251 19.9997 19.6094V0.390625C19.9997 0.287034 19.9585 0.187694 19.8853 0.114414ZM5.31255 18.8282C5.31255 19.0435 5.13731 19.2188 4.92192 19.2188H1.17204C0.95665 19.2188 0.781416 19.0436 0.781416 18.8282V12.4611C0.781416 12.2457 0.95665 12.0705 1.17204 12.0705H2.65638V16.5703C2.65638 16.786 2.8313 16.9609 3.047 16.9609C3.2627 16.9609 3.43763 16.786 3.43763 16.5703V12.0705H4.92196C5.13735 12.0705 5.31259 12.2457 5.31259 12.4611V18.8282H5.31255ZM6.4861 3.15387L9.60931 2.31699V3.76445L9.34751 3.83461C9.29795 3.84787 9.2515 3.87077 9.21079 3.90199C9.17009 3.93322 9.13594 3.97215 9.11029 4.01658C9.08464 4.06101 9.06799 4.11005 9.0613 4.16092C9.05461 4.21178 9.05801 4.26346 9.0713 4.31301C9.22142 4.8732 8.88778 5.45105 8.32759 5.60117C8.27797 5.61446 8.23146 5.6374 8.19072 5.66868C8.14997 5.69997 8.11581 5.73899 8.09017 5.7835C8.06453 5.82801 8.04792 5.87714 8.0413 5.92808C8.03468 5.97902 8.03817 6.03076 8.05157 6.08035L9.57419 11.7186H8.7902L8.38618 10.1379C8.37354 10.0884 8.3513 10.0419 8.32071 10.0009L6.4861 3.15387ZM9.60931 5.55582V8.85195L8.89685 6.21387C9.19446 6.0602 9.43802 5.83027 9.60931 5.55582ZM15.2212 19.2188H7.81735C7.53049 19.2188 7.25332 19.1149 7.03712 18.9264L6.0938 18.1037V12.7011L7.79919 10.9957L8.10849 12.2058C8.12998 12.2899 8.17884 12.3644 8.24736 12.4176C8.31588 12.4708 8.40017 12.4997 8.48692 12.4997L16.1668 12.5002C16.4683 12.5002 16.7136 12.7455 16.7136 13.047C16.7136 13.3486 16.4683 13.5939 16.1668 13.5939H12.2316C12.0159 13.5939 11.841 13.7688 11.841 13.9845C11.841 14.2002 12.0159 14.3752 12.2316 14.3752H17.3894C17.691 14.3752 17.9363 14.6205 17.9363 14.922C17.9363 15.2236 17.691 15.4689 17.3894 15.4689H12.2316C12.0159 15.4689 11.841 15.6438 11.841 15.8595C11.841 16.0752 12.0159 16.2502 12.2316 16.2502H16.5536C16.8552 16.2502 17.1005 16.4955 17.1005 16.797C17.1005 17.0986 16.8552 17.3439 16.5536 17.3439H12.2316C12.0159 17.3439 11.841 17.5188 11.841 17.7345C11.841 17.9502 12.0159 18.1252 12.2316 18.1252H15.2212C15.5227 18.1252 15.7681 18.3705 15.7681 18.672C15.768 18.9734 15.5227 19.2188 15.2212 19.2188ZM19.2185 19.2188H16.431C16.5067 19.0518 16.5493 18.8668 16.5493 18.6719C16.5493 18.477 16.5067 18.2919 16.431 18.125H16.5536C17.2859 18.125 17.8817 17.5292 17.8817 16.7969C17.8818 16.5905 17.8336 16.3869 17.7407 16.2025C18.3031 16.048 18.7175 15.5326 18.7175 14.922C18.7178 14.6368 18.6258 14.3593 18.4553 14.1307V9.17996C18.4553 8.96426 18.2804 8.78934 18.0647 8.78934C17.849 8.78934 17.6741 8.96426 17.6741 9.17996V13.625C17.5806 13.6044 17.4851 13.594 17.3893 13.5939H17.3765C17.4546 13.4222 17.4949 13.2357 17.4948 13.047C17.4948 12.3147 16.899 11.7189 16.1667 11.7189H15.5388C16.2056 11.433 16.6738 10.7703 16.6738 10C16.6738 8.96918 15.8352 8.13055 14.8044 8.13055C13.7736 8.13055 12.935 8.96918 12.935 10C12.935 10.7703 13.4033 11.433 14.07 11.7189H11.9348V4.29152C12.6326 4.13945 13.1832 3.58887 13.3352 2.89102H16.2736C16.4256 3.58887 16.9762 4.13945 17.674 4.29152V5.50598C17.674 5.72168 17.849 5.8966 18.0647 5.8966C18.2804 5.8966 18.4553 5.72168 18.4553 5.50598V3.94277C18.4553 3.72707 18.2804 3.55215 18.0647 3.55215C17.4847 3.55215 17.0129 3.08031 17.0129 2.50039C17.0129 2.28469 16.838 2.10977 16.6223 2.10977H12.9865C12.7708 2.10977 12.5959 2.28469 12.5959 2.50039C12.5959 3.08035 12.1241 3.55215 11.5442 3.55215C11.3285 3.55215 11.1536 3.72707 11.1536 3.94277V11.7189H10.3906V0.78168L19.2185 0.78125V19.2188ZM14.8045 11.0882C14.2045 11.0882 13.7163 10.6 13.7163 10C13.7163 9.40004 14.2045 8.91184 14.8045 8.91184C15.4045 8.91184 15.8927 9.4 15.8927 10C15.8927 10.6 15.4045 11.0882 14.8045 11.0882Z" fill="black"/>
</svg>
