<svg width="12" height="20" viewBox="0 0 12 20" fill="none" xmlns="http://www.w3.org/2000/svg">
<path d="M9.3964 0H2.63982C1.49114 0 0.515137 0.936609 0.515137 2.08497V17.9174C0.515137 19.0658 1.47049 20 2.61917 20L9.38687 19.9927C10.5354 19.9927 11.475 19.0583 11.475 17.9098L11.4849 2.08386C11.4847 0.931367 10.5497 0 9.3964 0ZM5.04203 1.25003H7.0023C7.1745 1.25003 7.31476 1.38982 7.31476 1.5625C7.31476 1.73517 7.1745 1.87497 7.0023 1.87497H5.04203C5.00099 1.87498 4.96035 1.86691 4.92243 1.85121C4.88451 1.83551 4.85006 1.8125 4.82104 1.78348C4.79202 1.75446 4.76901 1.72001 4.75331 1.68209C4.73761 1.64417 4.72954 1.60354 4.72956 1.5625C4.72954 1.52146 4.73761 1.48082 4.75331 1.4429C4.76901 1.40499 4.79202 1.37053 4.82104 1.34151C4.85006 1.3125 4.88451 1.28948 4.92243 1.27378C4.96035 1.25809 5.00099 1.25001 5.04203 1.25003ZM3.86412 1.34947C3.97992 1.23383 4.19072 1.23224 4.30637 1.34947C4.36511 1.40844 4.39826 1.48816 4.39866 1.57139C4.39866 1.65273 4.36435 1.73374 4.30637 1.79173C4.24871 1.84971 4.16721 1.88386 4.08604 1.88386C4.00327 1.88386 3.92369 1.84971 3.86412 1.79173C3.80645 1.7339 3.77357 1.65273 3.77357 1.57139C3.77341 1.48847 3.80645 1.4073 3.86412 1.34947ZM5.9591 19.3806C5.44345 19.3806 5.02408 18.9609 5.02408 18.4454C5.02408 17.9298 5.44345 17.5103 5.9591 17.5103C6.47474 17.5103 6.89412 17.9298 6.89412 18.4454C6.89412 18.9609 6.47458 19.3806 5.9591 19.3806ZM10.5149 16.8747H1.60885V2.96884H10.5149V16.8747Z" fill="black"/>
</svg>
